# xmcd
#
# Track frame offsets:
#	150
#	11749
#	25338
#	50941
#	72387
#	120638
#	161236
#	188639
#	209055
#
# Disc length: 3152 seconds
#
# Revision: 1
# Processed by: cddbd v1.5.1PL2 Copyright (c) Steve Scherf et al.
# Submitted via: EasyCDDAExtractor 9.0.0.1
#
DISCID=890c4e09
DTITLE=Blue Oyster Cult - Redondo Beach 17-03-93 Disc 2
DYEAR=1993
DGENRE=Hard Rock
TTITLE0=This Ain't The Summer 0f Love
TTITLE1=ME 262
TTITLE2=Harvest Moon
TTITLE3=Burning For You
TTITLE4=Godzilla
TTITLE5=(Don't Fear) The Reaper
TTITLE6=Golden Age Of Leather
TTITLE7=Od'd On Life Itself
TTITLE8=The Red And The Black
EXTD=
EXTT0=
EXTT1=
EXTT2=
EXTT3=
EXTT4=
EXTT5=
EXTT6=
EXTT7=
EXTT8=
PLAYORDER=
